Coordinates
version=1
nRows=37
nColumns=38
inDegrees=no

Units are S.I. units (second, meters, Newtons, ...)
If the header above contains a line with 'inDegrees', this indicates whether rotational values are in degrees (yes) or radians (no).

endheader
time	pelvis_tilt	pelvis_list	pelvis_rotation	pelvis_tx	pelvis_ty	pelvis_tz	hip_flexion_r	hip_adduction_r	hip_rotation_r	knee_angle_r	ankle_angle_r	subtalar_angle_r	mtp_angle_r	hip_flexion_l	hip_adduction_l	hip_rotation_l	knee_angle_l	ankle_angle_l	subtalar_angle_l	mtp_angle_l	lumbar_extension	lumbar_bending	lumbar_rotation	arm_flex_r	arm_add_r	arm_rot_r	elbow_flex_r	pro_sup_r	wrist_flex_r	wrist_dev_r	arm_flex_l	arm_add_l	arm_rot_l	elbow_flex_l	pro_sup_l	wrist_flex_l	wrist_dev_l
3.73251	0.143436	-0.00574015	-3.06782	-0.150043	0.789771	0.00350318	0.928567	-0.373145	-0.282671	1.33359	0.481155	0	0	0.966366	-0.196411	-0.104747	1.30565	0.47458	0	0	-0.310219	0.0369076	-0.0054009	1.18395	-0.476785	1.03155	1.69176	1.55714	0	0	1.31614	-0.317758	1.10739	1.57518	1.54461	0	0
3.74248	0.14104	-0.00676393	-3.06837	-0.151722	0.793555	0.00336898	0.916458	-0.371114	-0.285521	1.32112	0.478499	0	0	0.953796	-0.195025	-0.106418	1.29306	0.47286	0	0	-0.306318	0.0359292	-0.0049818	1.17332	-0.477904	1.03374	1.68911	1.55736	0	0	1.30538	-0.31927	1.10968	1.5733	1.54523	0	0
3.75246	0.138741	-0.00770049	-3.0689	-0.15343	0.797332	0.00323464	0.904366	-0.369087	-0.288525	1.30853	0.475641	0	0	0.941322	-0.193721	-0.108075	1.28039	0.471022	0	0	-0.302241	0.0349903	-0.00457197	1.1624	-0.479087	1.03603	1.68635	1.5576	0	0	1.29421	-0.320766	1.11205	1.57119	1.54586	0	0
3.76244	0.136539	-0.00855292	-3.06942	-0.155165	0.801101	0.00309869	0.892291	-0.367049	-0.291669	1.2958	0.472581	0	0	0.928937	-0.1925	-0.109721	1.26763	0.469055	0	0	-0.297995	0.0340844	-0.00418017	1.15117	-0.48033	1.03848	1.68354	1.55786	0	0	1.28262	-0.322278	1.11449	1.56884	1.54649	0	0
3.77242	0.134423	-0.00932592	-3.06993	-0.156927	0.804865	0.00295909	0.880227	-0.364972	-0.294925	1.28293	0.469328	0	0	0.916625	-0.191368	-0.111364	1.25476	0.466941	0	0	-0.2936	0.0332024	-0.00381199	1.13965	-0.48162	1.04113	1.68074	1.5581	0	0	1.27057	-0.323846	1.11705	1.56626	1.54714	0	0
3.7824	0.132374	-0.010023	-3.07045	-0.158714	0.808624	0.00281357	0.86816	-0.362822	-0.298259	1.26992	0.465897	0	0	0.904359	-0.19033	-0.11301	1.24178	0.464655	0	0	-0.289083	0.0323375	-0.00346953	1.12783	-0.482938	1.04404	1.67797	1.5583	0	0	1.25807	-0.325512	1.11974	1.56346	1.5478	0	0
3.79238	0.130365	-0.0106449	-3.07099	-0.160526	0.812382	0.00266003	0.856064	-0.36056	-0.301642	1.25675	0.46231	0	0	0.892105	-0.189392	-0.114656	1.22868	0.462168	0	0	-0.284484	0.0314875	-0.00315207	1.11573	-0.484261	1.04727	1.67524	1.5584	0	0	1.24512	-0.327319	1.12261	1.56047	1.54848	0	0
3.80236	0.128363	-0.0111898	-3.07154	-0.162363	0.81614	0.00249657	0.843904	-0.358152	-0.305051	1.24342	0.458583	0	0	0.879827	-0.188559	-0.116297	1.21545	0.459451	0	0	-0.279846	0.0306541	-0.0028584	1.10338	-0.485564	1.05085	1.67254	1.55835	0	0	1.23175	-0.329301	1.12571	1.55731	1.54916	0	0
3.81234	0.126341	-0.0116582	-3.07211	-0.164225	0.819899	0.00232182	0.831653	-0.355574	-0.308465	1.22993	0.454728	0	0	0.867495	-0.187827	-0.117926	1.20209	0.456483	0	0	-0.275201	0.0298365	-0.00259126	1.09077	-0.486821	1.05484	1.66985	1.55807	0	0	1.21798	-0.331491	1.1291	1.55402	1.54985	0	0
3.82232	0.12429	-0.0120624	-3.07268	-0.166112	0.823659	0.00213489	0.81931	-0.352825	-0.311859	1.21629	0.450747	0	0	0.855097	-0.187179	-0.119546	1.18859	0.453255	0	0	-0.270566	0.0290185	-0.00235212	1.07791	-0.488011	1.05924	1.66713	1.55749	0	0	1.20388	-0.333905	1.13286	1.5506	1.55055	0	0
3.8323	0.122216	-0.0124235	-3.07326	-0.168025	0.827416	0.00193555	0.806895	-0.349921	-0.315205	1.20251	0.446645	0	0	0.842635	-0.186585	-0.121163	1.17494	0.449767	0	0	-0.265936	0.0281723	-0.00213957	1.0648	-0.48913	1.06404	1.66435	1.5565	0	0	1.1895	-0.336544	1.13706	1.54709	1.55126	0	0
3.84228	0.120128	-0.0127625	-3.07382	-0.169962	0.831167	0.00172439	0.794429	-0.346886	-0.318481	1.18862	0.442428	0	0	0.830119	-0.186013	-0.122778	1.16117	0.446037	0	0	-0.261304	0.0272715	-0.00194762	1.05144	-0.490181	1.06923	1.66145	1.55501	0	0	1.1749	-0.33939	1.14179	1.54348	1.55197	0	0
3.85226	0.118032	-0.0130933	-3.07435	-0.171926	0.834909	0.00150308	0.781925	-0.343746	-0.321677	1.17461	0.438119	0	0	0.817556	-0.18543	-0.124388	1.14726	0.442096	0	0	-0.256667	0.0262997	-0.00176561	1.03779	-0.491182	1.07476	1.65842	1.55294	0	0	1.16017	-0.342411	1.14712	1.53975	1.55269	0	0
3.86224	0.11593	-0.013422	-3.07482	-0.173914	0.83864	0.00127411	0.769385	-0.340524	-0.324793	1.16051	0.433746	0	0	0.804952	-0.184812	-0.125982	1.13323	0.437975	0	0	-0.252026	0.0252521	-0.00157828	1.02387	-0.49216	1.08057	1.65522	1.55023	0	0	1.14536	-0.345563	1.15309	1.53587	1.55341	0	0
3.87222	0.113826	-0.0137471	-3.07523	-0.175927	0.842359	0.0010406	0.756805	-0.337235	-0.327834	1.14633	0.429345	0	0	0.792314	-0.184138	-0.127543	1.11908	0.433696	0	0	-0.247385	0.0241341	-0.00136658	1.00964	-0.493145	1.08661	1.65182	1.54686	0	0	1.13054	-0.348796	1.15975	1.53182	1.55413	0	0
3.8822	0.111715	-0.0140595	-3.07555	-0.177964	0.846063	0.000806168	0.744174	-0.333886	-0.330809	1.13205	0.424946	0	0	0.779644	-0.183399	-0.129052	1.10481	0.429267	0	0	-0.242751	0.0229616	-0.00110794	0.995121	-0.494177	1.09283	1.64817	1.54289	0	0	1.11575	-0.352057	1.16709	1.52753	1.55485	0	0
3.89218	0.109594	-0.0143436	-3.07578	-0.180022	0.849755	0.000574756	0.731473	-0.330475	-0.333736	1.11768	0.420568	0	0	0.766944	-0.182591	-0.130488	1.09041	0.424676	0	0	-0.238141	0.0217603	-0.000778929	0.980296	-0.495293	1.09916	1.64423	1.5385	0	0	1.10104	-0.355296	1.17507	1.52297	1.55557	0	0
3.90216	0.107454	-0.01458	-3.07591	-0.182099	0.853437	0.000350346	0.718679	-0.326994	-0.336633	1.10318	0.41622	0	0	0.754208	-0.181719	-0.13183	1.07588	0.4199	0	0	-0.233575	0.0205613	-0.000357674	0.96517	-0.496529	1.10552	1.63994	1.5339	0	0	1.08641	-0.358464	1.1836	1.51807	1.55628	0	0
3.91214	0.10529	-0.0147499	-3.07594	-0.184192	0.857111	0.000136754	0.705771	-0.323431	-0.339518	1.08855	0.411896	0	0	0.741432	-0.180789	-0.133061	1.0612	0.414924	0	0	-0.229071	0.0193957	0.000173787	0.949741	-0.497913	1.11186	1.63526	1.52925	0	0	1.07188	-0.361521	1.19256	1.51276	1.557	0	0
3.92212	0.1031	-0.0148366	-3.07588	-0.186301	0.86078	-6.23658e-05	0.692737	-0.319776	-0.342408	1.07375	0.407576	0	0	0.728613	-0.179806	-0.134162	1.04635	0.409752	0	0	-0.22464	0.0182918	0.000827739	0.934004	-0.499465	1.11806	1.63016	1.52471	0	0	1.0574	-0.364431	1.20179	1.50696	1.55773	0	0
3.9321	0.100891	-0.0148286	-3.07573	-0.188422	0.864447	-0.000243678	0.67957	-0.316017	-0.345312	1.05875	0.403233	0	0	0.715753	-0.178769	-0.135115	1.03133	0.404412	0	0	-0.220282	0.0172715	0.00161088	0.917949	-0.501202	1.12405	1.62458	1.52044	0	0	1.04293	-0.367163	1.21111	1.5006	1.55847	0	0
3.94208	0.0986747	-0.0147206	-3.07549	-0.190555	0.868113	-0.0004043	0.666276	-0.312147	-0.348233	1.04353	0.398834	0	0	0.702852	-0.177675	-0.135906	1.01612	0.398952	0	0	-0.215992	0.0163479	0.00252616	0.901558	-0.503135	1.12972	1.61846	1.51655	0	0	1.02843	-0.369688	1.22035	1.49359	1.55925	0	0
3.95206	0.0964633	-0.0145151	-3.07516	-0.192701	0.871779	-0.000541909	0.652862	-0.308161	-0.351164	1.02808	0.394345	0	0	0.689912	-0.176517	-0.136527	1.0007	0.393429	0	0	-0.211755	0.0155232	0.00357563	0.884813	-0.505272	1.13498	1.61172	1.51316	0	0	1.01381	-0.371979	1.22932	1.48588	1.56008	0	0
3.96204	0.0942699	-0.0142213	-3.07475	-0.194858	0.875445	-0.00065474	0.639339	-0.304056	-0.354084	1.01236	0.389737	0	0	0.676927	-0.17528	-0.13697	0.98508	0.387903	0	0	-0.207557	0.0147902	0.00476416	0.867692	-0.507611	1.13971	1.60427	1.51036	0	0	0.999001	-0.374003	1.23784	1.47742	1.561	0	0
3.97202	0.0921013	-0.0138504	-3.07427	-0.19703	0.879111	-0.000741741	0.625715	-0.299826	-0.356969	0.996366	0.384984	0	0	0.663885	-0.173958	-0.137237	0.969231	0.38242	0	0	-0.203388	0.0141383	0.00610377	0.850181	-0.510145	1.14385	1.59599	1.50824	0	0	0.983925	-0.375728	1.24578	1.46817	1.56203	0	0
3.982	0.0899572	-0.0134118	-3.07374	-0.199216	0.88278	-0.000802541	0.611989	-0.295458	-0.359786	0.980075	0.38007	0	0	0.650763	-0.172549	-0.137334	0.953142	0.377	0	0	-0.199247	0.0135588	0.00761206	0.832271	-0.512855	1.14733	1.58674	1.50686	0	0	0.968506	-0.377124	1.25299	1.4581	1.56322	0	0
3.99198	0.0878356	-0.0129149	-3.07317	-0.201419	0.88645	-0.000836795	0.598159	-0.290941	-0.362508	0.963468	0.374983	0	0	0.637538	-0.171054	-0.137275	0.936786	0.371629	0	0	-0.195133	0.0130434	0.00930254	0.813955	-0.515714	1.1501	1.57642	1.50628	0	0	0.952677	-0.378163	1.25937	1.44719	1.5646	0	0
4.00196	0.0857376	-0.0123715	-3.07259	-0.203639	0.890123	-0.000844175	0.584223	-0.286275	-0.365109	0.946528	0.369713	0	0	0.624186	-0.169471	-0.137082	0.920131	0.36626	0	0	-0.191042	0.0125817	0.0111778	0.795225	-0.518678	1.15211	1.5649	1.50653	0	0	0.936378	-0.378835	1.26485	1.43544	1.56624	0	0
4.01194	0.0836695	-0.0117977	-3.07201	-0.205878	0.893798	-0.000824429	0.570188	-0.281468	-0.367566	0.929241	0.364249	0	0	0.610694	-0.167794	-0.136782	0.903139	0.360829	0	0	-0.186964	0.0121596	0.0132249	0.776071	-0.521687	1.15332	1.55207	1.50758	0	0	0.919572	-0.379154	1.26941	1.42282	1.56817	0	0
4.02192	0.0816447	-0.0112146	-3.07143	-0.208137	0.897477	-0.00077745	0.55607	-0.276538	-0.369862	0.911589	0.358576	0	0	0.597054	-0.16601	-0.136408	0.88577	0.355271	0	0	-0.182885	0.0117584	0.0154111	0.756485	-0.52466	1.15369	1.53785	1.5094	0	0	0.902247	-0.379166	1.2731	1.40933	1.57043	0	0
4.0319	0.079677	-0.0106428	-3.07086	-0.210417	0.901158	-0.000703661	0.541879	-0.271503	-0.371982	0.893551	0.352673	0	0	0.583261	-0.164109	-0.135995	0.867979	0.349526	0	0	-0.17879	0.0113606	0.0176918	0.736466	-0.527504	1.1532	1.52214	1.51193	0	0	0.884423	-0.37894	1.27605	1.39495	1.57304	0	0
4.04188	0.07777	-0.0100965	-3.07031	-0.212718	0.904842	-0.000604086	0.527613	-0.266369	-0.373916	0.875088	0.346515	0	0	0.569294	-0.162087	-0.135583	0.84972	0.343548	0	0	-0.174678	0.0109577	0.0200284	0.716031	-0.53012	1.15187	1.50487	1.51507	0	0	0.866131	-0.378536	1.27841	1.37966	1.57597	0	0
4.05186	0.0759157	-0.00958393	-3.06981	-0.215041	0.908533	-0.000480018	0.513253	-0.261131	-0.375651	0.856155	0.340078	0	0	0.555119	-0.15995	-0.135212	0.830941	0.337307	0	0	-0.170566	0.0105513	0.0223898	0.69521	-0.532405	1.14972	1.48597	1.51868	0	0	0.8474	-0.377996	1.28031	1.36338	1.57917	0	0
4.06184	0.0740948	-0.00911012	-3.06936	-0.217386	0.912234	-0.000332566	0.498762	-0.255782	-0.377177	0.8367	0.333348	0	0	0.540685	-0.157704	-0.134913	0.811588	0.330786	0	0	-0.166481	0.0101511	0.0247392	0.674064	-0.534248	1.14688	1.46537	1.52244	0	0	0.828248	-0.377354	1.28187	1.34607	1.5825	0	0
4.07182	0.0722736	-0.00867506	-3.069	-0.219754	0.915946	-0.000163018	0.484084	-0.250309	-0.378483	0.816673	0.326318	0	0	0.525925	-0.155357	-0.134709	0.791609	0.323979	0	0	-0.162469	0.00977887	0.0270221	0.652701	-0.535512	1.14352	1.44303	1.52586	0	0	0.808664	-0.376657	1.28316	1.32767	1.58574	0	0
4.0818	0.0704078	-0.00827505	-3.06874	-0.222148	0.919674	2.63325e-05	0.469153	-0.244693	-0.379555	0.796024	0.318989	0	0	0.510763	-0.152922	-0.134615	0.770958	0.316888	0	0	-0.158585	0.00945514	0.0292036	0.631229	-0.536086	1.13985	1.4189	1.52847	0	0	0.788651	-0.375922	1.28428	1.30812	1.58855	0	0
4.09178	0.0684439	-0.00790069	-3.06861	-0.224571	0.92342	0.00023226	0.45389	-0.23891	-0.380375	0.774704	0.311364	0	0	0.49512	-0.150421	-0.134643	0.749602	0.309515	0	0	-0.154894	0.0092004	0.0312704	0.609753	-0.535883	1.1361	1.39294	1.52986	0	0	0.768222	-0.375132	1.28532	1.28733	1.59046	0	0
